<?xml version="1.0" encoding="iso-8859-1"?>
<!-- Uploaded to: SVG Repo, www.svgrepo.com, Generator: SVG Repo Mixer Tools -->
<svg version="1.1" id="Layer_1" xmlns="http://www.w3.org/2000/svg" xmlns:xlink="http://www.w3.org/1999/xlink" 
	 viewBox="0 0 512 512" xml:space="preserve">
<rect x="8.017" y="63.599" style="fill:#E6EAEA;" width="495.967" height="436.109"/>
<rect x="8.017" y="63.599" style="fill:#CDD4D5;" width="247.983" height="436.109"/>
<rect x="42.221" y="260.276" style="fill:#4ACFD9;" width="427.557" height="68.409"/>
<rect x="42.221" y="260.276" style="fill:#0295AA;" width="213.779" height="68.409"/>
<polygon style="fill:#F0353D;" points="187.591,132.008 50.772,132.008 50.772,208.969 102.079,208.969 119.182,234.622 
	136.284,208.969 187.591,208.969 "/>
<path style="fill:#FFFFFF;" d="M161.937,191.332c-4.427,0-8.017-3.588-8.017-8.017v-25.653c0-4.428,3.589-8.017,8.017-8.017
	s8.017,3.588,8.017,8.017v25.653C169.954,187.744,166.365,191.332,161.937,191.332z"/>
<polygon style="fill:#FF8C29;" points="461.228,132.008 324.409,132.008 324.409,208.969 375.716,208.969 392.818,234.622 
	409.921,208.969 461.228,208.969 "/>
<path style="fill:#FFFFFF;" d="M435.574,191.332c-4.428,0-8.017-3.588-8.017-8.017v-25.653c0-4.428,3.588-8.017,8.017-8.017
	s8.017,3.588,8.017,8.017v25.653C443.591,187.744,440.003,191.332,435.574,191.332z"/>
<polygon style="fill:#9BAAAB;" points="187.591,448.401 324.409,448.401 324.409,371.441 273.102,371.441 256,345.787 
	238.898,371.441 187.591,371.441 "/>
<polygon style="fill:#687F82;" points="238.898,371.441 187.591,371.441 187.591,448.401 256,448.401 256,345.787 "/>
<path style="fill:#FFFFFF;" d="M298.756,430.764c-4.428,0-8.017-3.588-8.017-8.017v-25.653c0-4.428,3.588-8.017,8.017-8.017
	s8.017,3.588,8.017,8.017v25.653C306.772,427.176,303.184,430.764,298.756,430.764z"/>
<path d="M503.983,55.582h-34.739v-43.29c0-4.428-3.588-8.017-8.017-8.017s-8.017,3.588-8.017,8.017v43.29h-52.376v-43.29
	c0-4.428-3.588-8.017-8.017-8.017s-8.017,3.588-8.017,8.017v43.29h-52.376v-43.29c0-4.428-3.588-8.017-8.017-8.017
	c-4.428,0-8.017,3.588-8.017,8.017v43.29h-52.376v-43.29c0-4.428-3.588-8.017-8.017-8.017c-4.427,0-8.017,3.588-8.017,8.017v43.29
	h-52.376v-43.29c0-4.428-3.589-8.017-8.017-8.017s-8.017,3.588-8.017,8.017v43.29h-52.376v-43.29c0-4.428-3.589-8.017-8.017-8.017
	c-4.427,0-8.017,3.588-8.017,8.017v43.29H58.789v-43.29c0-4.428-3.589-8.017-8.017-8.017s-8.017,3.588-8.017,8.017v43.29H8.017
	C3.589,55.582,0,59.171,0,63.599v436.109c0,4.428,3.589,8.017,8.017,8.017h495.967c4.428,0,8.017-3.588,8.017-8.017V63.599
	C512,59.171,508.412,55.582,503.983,55.582z M495.967,491.691H16.033V71.616h26.722v17.637c0,4.428,3.589,8.017,8.017,8.017
	s8.017-3.588,8.017-8.017V71.616h52.376v17.637c0,4.428,3.589,8.017,8.017,8.017c4.427,0,8.017-3.588,8.017-8.017V71.616h52.376
	v17.637c0,4.428,3.589,8.017,8.017,8.017s8.017-3.588,8.017-8.017V71.616h52.376v17.637c0,4.428,3.589,8.017,8.017,8.017
	c4.428,0,8.017-3.588,8.017-8.017V71.616h52.376v17.637c0,4.428,3.588,8.017,8.017,8.017c4.428,0,8.017-3.588,8.017-8.017V71.616
	h52.376v17.637c0,4.428,3.588,8.017,8.017,8.017s8.017-3.588,8.017-8.017V71.616h52.376v17.637c0,4.428,3.588,8.017,8.017,8.017
	s8.017-3.588,8.017-8.017V71.616h26.722V491.691z"/>
<path d="M42.221,252.259c-4.427,0-8.017,3.588-8.017,8.017v68.409c0,4.428,3.589,8.017,8.017,8.017h427.557
	c4.428,0,8.017-3.588,8.017-8.017v-68.409c0-4.428-3.588-8.017-8.017-8.017H42.221z M461.762,320.668H50.238v-52.376h411.524
	V320.668z"/>
<path d="M50.772,216.985h47.016l14.722,22.083c1.487,2.231,3.989,3.57,6.67,3.57s5.184-1.339,6.67-3.57l14.724-22.083h47.016
	c4.427,0,8.017-3.588,8.017-8.017v-76.96c0-4.428-3.589-8.017-8.017-8.017H50.772c-4.427,0-8.017,3.588-8.017,8.017v76.96
	C42.756,213.397,46.345,216.985,50.772,216.985z M58.789,140.025h120.785v60.927h-43.29c-2.681,0-5.184,1.339-6.67,3.57
	l-10.432,15.649l-10.432-15.649c-1.487-2.231-3.989-3.57-6.67-3.57h-43.29V140.025z"/>
<path d="M324.409,216.985h47.016l14.722,22.083c1.487,2.231,3.989,3.57,6.67,3.57c2.681,0,5.184-1.339,6.67-3.57l14.724-22.083
	h47.016c4.428,0,8.017-3.588,8.017-8.017v-76.96c0-4.428-3.588-8.017-8.017-8.017H324.409c-4.428,0-8.017,3.588-8.017,8.017v76.96
	C316.392,213.397,319.981,216.985,324.409,216.985z M332.426,140.025h120.785v60.927h-43.29c-2.681,0-5.184,1.339-6.67,3.57
	l-10.432,15.649l-10.432-15.649c-1.487-2.231-3.989-3.57-6.67-3.57h-43.29V140.025z"/>
<path d="M324.409,363.424h-47.016l-14.722-22.083c-1.487-2.231-3.989-3.57-6.67-3.57c-2.681,0-5.184,1.339-6.67,3.57l-14.724,22.083
	h-47.016c-4.427,0-8.017,3.588-8.017,8.017v76.96c0,4.428,3.589,8.017,8.017,8.017h136.818c4.428,0,8.017-3.588,8.017-8.017v-76.96
	C332.426,367.012,328.838,363.424,324.409,363.424z M316.392,440.384H195.608v-60.927h43.29c2.681,0,5.184-1.339,6.67-3.57
	L256,360.238l10.432,15.649c1.487,2.231,3.989,3.57,6.67,3.57h43.29V440.384z"/>
</svg>